<svg class="animated" id="freepik_stories-student-stress" xmlns="http://www.w3.org/2000/svg" viewBox="0 0 500 500" version="1.1" xmlns:xlink="http://www.w3.org/1999/xlink" xmlns:svgjs="http://svgjs.com/svgjs"><style>svg#freepik_stories-student-stress:not(.animated) .animable {opacity: 0;}svg#freepik_stories-student-stress.animated #freepik--background-simple--inject-72 {animation: 1s 1 forwards cubic-bezier(.36,-0.01,.5,1.38) lightSpeedRight;animation-delay: 0s;}svg#freepik_stories-student-stress.animated #freepik--Clock--inject-72 {animation: 1s 1 forwards cubic-bezier(.36,-0.01,.5,1.38) slideRight;animation-delay: 0s;}svg#freepik_stories-student-stress.animated #freepik--Window--inject-72 {animation: 1s 1 forwards cubic-bezier(.36,-0.01,.5,1.38) slideLeft;animation-delay: 0s;}svg#freepik_stories-student-stress.animated #freepik--Table--inject-72 {animation: 1s 1 forwards cubic-bezier(.36,-0.01,.5,1.38) slideUp;animation-delay: 0s;}svg#freepik_stories-student-stress.animated #freepik--Character--inject-72 {animation: 1s 1 forwards cubic-bezier(.36,-0.01,.5,1.38) slideDown;animation-delay: 0s;}svg#freepik_stories-student-stress.animated #freepik--Lamp--inject-72 {animation: 1s 1 forwards cubic-bezier(.36,-0.01,.5,1.38) slideDown;animation-delay: 0s;}svg#freepik_stories-student-stress.animated #freepik--Books_2--inject-72 {animation: 1s 1 forwards cubic-bezier(.36,-0.01,.5,1.38) zoomIn;animation-delay: 0s;}svg#freepik_stories-student-stress.animated #freepik--Book_1--inject-72 {animation: 1s 1 forwards cubic-bezier(.36,-0.01,.5,1.38) fadeIn;animation-delay: 0s;}svg#freepik_stories-student-stress.animated #freepik--Device--inject-72 {animation: 1s 1 forwards cubic-bezier(.36,-0.01,.5,1.38) slideUp;animation-delay: 0s;}            @keyframes lightSpeedRight {              from {                transform: translate3d(50%, 0, 0) skewX(-20deg);                opacity: 0;              }              60% {                transform: skewX(10deg);                opacity: 1;              }              80% {                transform: skewX(-2deg);              }              to {                opacity: 1;                transform: translate3d(0, 0, 0);              }            }                    @keyframes slideRight {                0% {                    opacity: 0;                    transform: translateX(30px);                }                100% {                    opacity: 1;                    transform: translateX(0);                }            }                    @keyframes slideLeft {                0% {                    opacity: 0;                    transform: translateX(-30px);                }                100% {                    opacity: 1;                    transform: translateX(0);                }            }                    @keyframes slideUp {                0% {                    opacity: 0;                    transform: translateY(30px);                }                100% {                    opacity: 1;                    transform: inherit;                }            }                    @keyframes slideDown {                0% {                    opacity: 0;                    transform: translateY(-30px);                }                100% {                    opacity: 1;                    transform: translateY(0);                }            }                    @keyframes zoomIn {                0% {                    opacity: 0;                    transform: scale(0.5);                }                100% {                    opacity: 1;                    transform: scale(1);                }            }                    @keyframes fadeIn {                0% {                    opacity: 0;                }                100% {                    opacity: 1;                }            }        </style><g id="freepik--background-simple--inject-72" class="animable" style="transform-origin: 247.955px 250.99px;"><g id="ele1oaj8ocgvb" class="animable" style="transform-origin: 247.955px 250.99px;"><path d="M462.01,369.56c27.74-55.46,29.61-129.36,10.46-188.6-16.49-51.01-53.18-89.91-95.56-113.08-49.17-26.88-107.78-34.88-160.55-17.91-13.88,4.46-27.4,8.55-40.48,15.88-53.65,30.05-43.3,104.1-62.12,129.85-15.84,21.67-46.12,15.28-65.21,31.89C-2.97,272.4-3.11,385.67,56.34,421.07c63.06,37.56,336.96,85.85,405.67-51.51Z" style="fill: #FB7A5A; transform-origin: 247.955px 250.99px;" id="elc9xxccxjujr" class="animable"></path><g id="el50zmkqi3x3r"><path d="M462.01,369.56c27.74-55.46,29.61-129.36,10.46-188.6-16.49-51.01-53.18-89.91-95.56-113.08-49.17-26.88-107.78-34.88-160.55-17.91-13.88,4.46-27.4,8.55-40.48,15.88-53.65,30.05-43.3,104.1-62.12,129.85-15.84,21.67-46.12,15.28-65.21,31.89C-2.97,272.4-3.11,385.67,56.34,421.07c63.06,37.56,336.96,85.85,405.67-51.51Z" style="fill: rgb(255, 255, 255); opacity: 0.8; transform-origin: 247.955px 250.99px;" class="animable" id="el1f525ojau4q"></path></g></g></g><g id="freepik--Clock--inject-72" class="animable" style="transform-origin: 405.97px 152.47px;"><g id="elvq0v1mqrxs"><g style="opacity: 0.3; transform-origin: 405.97px 152.47px;" class="animable" id="elejc7ot3tqal"><g id="elekibmagpiyh"><circle cx="405.97" cy="152.47" r="46.6" style="fill: none; stroke: rgb(0, 0, 0); stroke-linejoin: round; transform-origin: 405.97px 152.47px; transform: rotate(-21.84deg);" class="animable" id="eleo1ov5fr1wa"></circle></g><g id="elgh4xzudhjc"><circle cx="405.97" cy="152.47" r="40.87" style="fill: none; stroke: rgb(0, 0, 0); stroke-linejoin: round; transform-origin: 405.97px 152.47px; transform: rotate(-80.66deg);" class="animable" id="elw23kkbq2d6m"></circle></g><circle cx="405.97" cy="152.47" r="2.8" style="fill: none; stroke: rgb(0, 0, 0); stroke-linejoin: round; transform-origin: 405.97px 152.47px;" id="elek1iaqtsavf" class="animable"></circle><line x1="405.97" y1="155.27" x2="405.97" y2="183.45" style="fill: none; stroke: rgb(0, 0, 0); stroke-linejoin: round; transform-origin: 405.97px 169.36px;" id="els6p2kxmt857" class="animable"></line><line x1="394.83" y1="146.83" x2="403.25" y2="151.19" style="fill: none; stroke: rgb(0, 0, 0); stroke-linejoin: round; transform-origin: 399.04px 149.01px;" id="ely7akotoijp9" class="animable"></line></g></g></g><g id="freepik--Window--inject-72" class="animable" style="transform-origin: 187.96px 218.385px;"><g id="el0oa1qlxmv9r" class="animable" style="transform-origin: 187.96px 218.385px;"><g id="elustl14q9al"><path d="M327.49,64.26c-2.42,0-4.45,1.57-5.18,3.74H53.63c-.74-2.17-2.77-3.74-5.19-3.74-3.04,0-5.5,2.46-5.5,5.5s2.46,5.5,5.5,5.5c2.42,0,4.45-1.57,5.19-3.74H322.3c.74,2.17,2.77,3.74,5.18,3.74,3.04,0,5.5-2.46,5.5-5.5s-2.46-5.5-5.5-5.5Z" style="opacity: 0.2; transform-origin: 187.96px 69.76px;" class="animable" id="el34fua2ofn3b"></path></g><g id="elkodiqgegoe"><g style="opacity: 0.2; transform-origin: 90.785px 221.475px;" class="animable" id="eld0mwy9bxycw"><path d="M117.18,72.51c3.83,93.15,7.18,187.18,11.19,279.99l-.4,18.19s-17.22,0-26.28,.91c-9.06,.91-23.11,.91-33.08,.91s-15.41-3.63-15.41-3.63l.65-16.4c2.01-92.76,4.18-186.8,5.6-279.96" style="fill: none; stroke: rgb(0, 0, 0); stroke-linejoin: round; transform-origin: 90.785px 222.51px;" id="elgonbtzuxf5h" class="animable"></path><line x1="74.25" y1="337.1" x2="74.2" y2="348.06" style="fill: none; stroke: rgb(0, 0, 0); stroke-linejoin: round; transform-origin: 74.225px 342.58px;" id="elrovkzmuvvoh" class="animable"></line><line x1="75.19" y1="123.41" x2="74.29" y2="327.36" style="fill: none; stroke: rgb(0, 0, 0); stroke-linejoin: round; transform-origin: 74.74px 225.385px;" id="eln7rrhlfft2m" class="animable"></line><line x1="75.42" y1="70.44" x2="75.21" y2="117.32" style="fill: none; stroke: rgb(0, 0, 0); stroke-linejoin: round; transform-origin: 75.315px 93.88px;" id="elx1q4kbl0g09" class="animable"></line><line x1="90.86" y1="177.58" x2="88.81" y2="313.36" style="fill: none; stroke: rgb(0, 0, 0); stroke-linejoin: round; transform-origin: 89.835px 245.47px;" id="elosaa2svjn3" class="animable"></line><line x1="92.46" y1="71.66" x2="90.99" y2="169.09" style="fill: none; stroke: rgb(0, 0, 0); stroke-linejoin: round; transform-origin: 91.725px 120.375px;" id="elhtz3f77krl" class="animable"></line><line x1="105.29" y1="215.34" x2="105.86" y2="341.37" style="fill: none; stroke: rgb(0, 0, 0); stroke-linejoin: round; transform-origin: 105.575px 278.355px;" id="el2mlb1faal3e" class="animable"></line><line x1="104.88" y1="125.85" x2="105.24" y2="205" style="fill: none; stroke: rgb(0, 0, 0); stroke-linejoin: round; transform-origin: 105.06px 165.425px;" id="elpfkzawacy6a" class="animable"></line><line x1="104.64" y1="72.88" x2="104.84" y2="116.11" style="fill: none; stroke: rgb(0, 0, 0); stroke-linejoin: round; transform-origin: 104.74px 94.495px;" id="elvv9zgmezvhl" class="animable"></line></g></g><g id="elh6bonnuf3bj"><g style="opacity: 0.2; transform-origin: 282.07px 220.53px;" class="animable" id="el33j23j34gpy"><path d="M256.18,72.51c-3.68,98.62-8.37,198.24-11.9,296.34,0,0,11.73,1.77,19.27,1.77h38.49c8.3,0,17.82-1.84,17.82-1.84-1.74-98.03-2.91-197.65-5.95-296.27" style="fill: none; stroke: rgb(0, 0, 0); stroke-linejoin: round; transform-origin: 282.07px 221.565px;" id="el2zenpl2yvy" class="animable"></path><line x1="299.1" y1="337.1" x2="299.15" y2="348.06" style="fill: none; stroke: rgb(0, 0, 0); stroke-linejoin: round; transform-origin: 299.125px 342.58px;" id="eltmolqzjvtwm" class="animable"></line><line x1="298.17" y1="123.41" x2="299.06" y2="327.36" style="fill: none; stroke: rgb(0, 0, 0); stroke-linejoin: round; transform-origin: 298.615px 225.385px;" id="elude7uxp6m0a" class="animable"></line><line x1="297.93" y1="70.44" x2="298.14" y2="117.32" style="fill: none; stroke: rgb(0, 0, 0); stroke-linejoin: round; transform-origin: 298.035px 93.88px;" id="elqwu6xa2rr9" class="animable"></line><line x1="282.49" y1="177.58" x2="284.54" y2="313.36" style="fill: none; stroke: rgb(0, 0, 0); stroke-linejoin: round; transform-origin: 283.515px 245.47px;" id="elikkwgullkwk" class="animable"></line><line x1="280.89" y1="71.66" x2="282.36" y2="169.09" style="fill: none; stroke: rgb(0, 0, 0); stroke-linejoin: round; transform-origin: 281.625px 120.375px;" id="elgfzll7jvs2" class="animable"></line><line x1="268.06" y1="215.34" x2="267.49" y2="341.37" style="fill: none; stroke: rgb(0, 0, 0); stroke-linejoin: round; transform-origin: 267.775px 278.355px;" id="elmvw53xqvxhf" class="animable"></line><line x1="268.47" y1="125.85" x2="268.11" y2="205" style="fill: none; stroke: rgb(0, 0, 0); stroke-linejoin: round; transform-origin: 268.29px 165.425px;" id="el2p3xdnkds1k" class="animable"></line><line x1="268.71" y1="72.88" x2="268.51" y2="116.11" style="fill: none; stroke: rgb(0, 0, 0); stroke-linejoin: round; transform-origin: 268.61px 94.495px;" id="el6m3453p20uj" class="animable"></line></g></g><g id="el5pmcs0j642m"><g style="opacity: 0.2; transform-origin: 148.895px 114.84px;" class="animable" id="el8ubosmlxufi"><polyline points="118.89 98.98 145.93 98.98 145.93 130.52 120.69 130.52" style="fill: none; stroke: rgb(0, 0, 0); stroke-linejoin: round; transform-origin: 132.41px 114.75px;" id="elcoqkp7n0v8c" class="animable"></polyline><rect x="150.64" y="99.06" width="28.26" height="31.64" style="fill: none; stroke: rgb(0, 0, 0); stroke-linejoin: round; transform-origin: 164.77px 114.88px;" id="ele70slcem7m" class="animable"></rect></g></g><g id="elafk420qf2g"><g style="opacity: 0.2; transform-origin: 224.82px 114.84px;" class="animable" id="elbpmu7ma7eh5"><polyline points="254.83 98.98 227.79 98.98 227.79 130.52 253.03 130.52" style="fill: none; stroke: rgb(0, 0, 0); stroke-linejoin: round; transform-origin: 241.31px 114.75px;" id="elz7edrct7jwk" class="animable"></polyline><g id="eliy49bbl1hxi"><rect x="194.81" y="99.06" width="28.26" height="31.64" style="fill: none; stroke: rgb(0, 0, 0); stroke-linejoin: round; transform-origin: 208.94px 114.88px; transform: rotate(180deg);" class="animable" id="el1kiqp4ey04j"></rect></g></g></g><g id="eleialoa29jzo"><polyline points="123.35 242.32 179.63 242.32 179.63 147.75 120.88 147.75" style="fill: none; opacity: 0.2; stroke: rgb(0, 0, 0); stroke-linejoin: round; transform-origin: 150.255px 195.035px;" class="animable" id="el2uxzqhxod"></polyline></g><g id="ellytd20c5w5"><polyline points="251.98 146.95 194.47 146.95 194.47 242.32 247.65 242.32" style="fill: none; opacity: 0.2; stroke: rgb(0, 0, 0); stroke-linejoin: round; transform-origin: 223.225px 194.635px;" class="animable" id="ell8yyaaz2fgn"></polyline></g><g id="el3ksi8hc81yn"><polyline points="125.2 264.76 179.63 264.76 179.63 359.83 129.33 359.83" style="fill: none; opacity: 0.2; stroke: rgb(0, 0, 0); stroke-linejoin: round; transform-origin: 152.415px 312.295px;" class="animable" id="elhmf95j7iric"></polyline></g><g id="elybab53lcfhj"><polyline points="248.27 263.96 194.47 263.96 194.47 360.71 243.52 360.71" style="fill: none; opacity: 0.2; stroke: rgb(0, 0, 0); stroke-linejoin: round; transform-origin: 221.37px 312.335px;" class="animable" id="eltg3wu4z9bcm"></polyline></g><g id="elrrq2r8qqjss"><line x1="129.08" y1="366.75" x2="244.27" y2="366.75" style="fill: none; opacity: 0.2; stroke: rgb(0, 0, 0); stroke-linejoin: round; transform-origin: 186.675px 366.75px;" class="animable" id="elfsh6bxh5kyc"></line></g><g id="elykj045iwvoe"><line x1="118.66" y1="88.03" x2="254.76" y2="88.03" style="fill: none; opacity: 0.2; stroke: rgb(0, 0, 0); stroke-linejoin: round; transform-origin: 186.71px 88.03px;" class="animable" id="elad2rio6q9og"></line></g><g id="el3e3hwkg2b5u"><line x1="187.04" y1="88.68" x2="187.04" y2="365.45" style="fill: none; opacity: 0.2; stroke: rgb(0, 0, 0); stroke-linejoin: round; transform-origin: 187.04px 227.065px;" class="animable" id="elnkiaetz4h8r"></line></g><g id="el1zg5ezrb2uy"><line x1="120.39" y1="140.43" x2="252.78" y2="140.43" style="fill: none; opacity: 0.2; stroke: rgb(0, 0, 0); stroke-linejoin: round; transform-origin: 186.585px 140.43px;" class="animable" id="elws7ok1s2pb"></line></g></g></g><g id="freepik--Table--inject-72" class="animable" style="transform-origin: 249.77px 415.93px;"><line x1="17.34" y1="415.93" x2="482.2" y2="415.93" style="fill: none; stroke: rgb(38, 50, 56); stroke-linecap: round; stroke-linejoin: round; transform-origin: 249.77px 415.93px;" id="elc2mwkmsszou" class="animable"></line></g><g id="freepik--Character--inject-72" class="animable" style="transform-origin: 264.69px 296.669px;"><g id="elx18ww8ggxr" class="animable" style="transform-origin: 264.69px 296.669px;"><g id="eloua0lqw1aip" class="animable" style="transform-origin: 265.67px 343.215px;"><path d="M347.59,324.12c0-9.85-6.65-29.54-15.34-36.57-8.68-7.03-31.22-13.44-31.22-13.44l-29.4-3.17v-.42l-2.06,.2-1.81-.2v.37l-33.87,3.22s-25.56,6.41-35.41,13.44c-9.85,7.03-18.29,23.56-18.29,33.41s-.7,55.21-.7,55.21l29.54,2.81,3.87-9.85,4.22,46.77h98.7l3.72-46.77,3.41,9.85,28.9,.14s-4.27-45.15-4.27-54.99Z" style="fill: #FB7A5A; stroke: rgb(38, 50, 56); stroke-linecap: round; stroke-linejoin: round; transform-origin: 265.67px 343.21px;" id="el6n0cuxqpv6i" class="animable"></path><path d="M206.9,357.73s9.44-27.57,9.82-22.66c.38,4.91-3.81,34.06-3.81,34.06l-6.38,11.26,.38-22.66Z" style="fill: rgb(38, 50, 56); stroke: rgb(38, 50, 56); stroke-linecap: round; stroke-linejoin: round; transform-origin: 211.637px 357.437px;" id="el6xlhdniv60j" class="animable"></path><path d="M217.12,415.9s94.2-46.64,90.93-39.11c-3.27,7.53-8.18,13.42-8.18,13.42l15.71-8.51,5.24-38.29-5,72.5h-98.7Z" style="fill: rgb(38, 50, 56); stroke: rgb(38, 50, 56); stroke-linecap: round; stroke-linejoin: round; transform-origin: 268.97px 379.66px;" id="elny2b1lfw7w" class="animable"></path><g id="elh4dx60klpnr" class="animable" style="transform-origin: 265.799px 311.869px;"><path d="M233.89,274.11s-.24,36.3,6.44,49.31c6.68,13.01,27.78,28.13,31.3,26.02,3.52-2.11,24.62-28.48,26.02-35.17,1.41-6.68-2.17-40.17-2.17-40.17h-61.59Z" style="fill: rgb(255, 255, 255); stroke: rgb(38, 50, 56); stroke-linecap: round; stroke-linejoin: round; transform-origin: 265.934px 311.869px;" id="el904qb2cir2" class="animable"></path><path d="M246.99,303l14.9-7.01-28.27-17.73s1.11,30,2.86,33.51l10.52-8.76Z" style="fill: rgb(38, 50, 56); stroke: rgb(38, 50, 56); stroke-linecap: round; stroke-linejoin: round; transform-origin: 247.755px 295.015px;" id="ela6oqvwik96t" class="animable"></path><path d="M239.28,283.33s8.09,24.62,14.07,31.65" style="fill: none; stroke: rgb(38, 50, 56); stroke-linecap: round; stroke-linejoin: round; transform-origin: 246.315px 299.155px;" id="el6oguxh5c38m" class="animable"></path><path d="M289.92,284.73s-3.87,20.04-9.49,30.59" style="fill: none; stroke: rgb(38, 50, 56); stroke-linecap: round; stroke-linejoin: round; transform-origin: 285.175px 300.025px;" id="el8a0aa2ssbwn" class="animable"></path></g></g><g id="elg60yg1dj4a" class="animable" style="transform-origin: 204.6px 328.654px;"><path d="M201.99,303.99c-.7,3.13-2.92,5.29-4.97,4.83-2.04-.46-3.13-3.36-2.44-6.49,.7-3.13,2.92-5.29,4.97-4.83,2.04,.46,3.13,3.36,2.44,6.49Z" style="fill: rgb(255, 255, 255); stroke: rgb(38, 50, 56); stroke-linecap: round; stroke-linejoin: round; transform-origin: 198.285px 303.16px;" id="ell59oqq7g5rj" class="animable"></path><path d="M199.08,295.39s3.59-13.54,4.42-15.75c.83-2.21,13.26-29.84,13.82-33.99,.55-4.14,1.38-8.57,2.21-8.29s11.61,18.79,11.61,18.79c0,0-2.21,7.74-4.7,13.82-2.49,6.08-2.76,7.46-2.76,7.46l9.4-10.5s2.49,3.04,.83,7.18-1.66,1.93-5.25,6.91-5.25,8.57-7.46,9.95c-2.21,1.38-8.57,6.63-8.57,6.63,0,0-3.32,12.16-3.32,17.96s.83,71.57,1.38,80.69c.55,9.12-7.46,21.83-12.43,23.21-4.97,1.38-16.58,.28-21.28-8.01-4.7-8.29-.83-27.36,.55-32.33,1.38-4.97,21.55-83.73,21.55-83.73Z" style="fill: rgb(255, 255, 255); stroke: rgb(38, 50, 56); stroke-linecap: round; stroke-linejoin: round; transform-origin: 204.6px 328.654px;" id="elxu0kmgzno5" class="animable"></path><path d="M221.97,242.96s-.77,14.46-2.07,22.47" style="fill: none; stroke: rgb(38, 50, 56); stroke-linecap: round; stroke-linejoin: round; transform-origin: 220.935px 254.195px;" id="el7poyz3z0n2t" class="animable"></path><path d="M227.39,246.06s-.77,13.43-3.1,19.37" style="fill: none; stroke: rgb(38, 50, 56); stroke-linecap: round; stroke-linejoin: round; transform-origin: 225.84px 255.745px;" id="el1nxck1fsxkw" class="animable"></path><path d="M205.43,276.6s5.8-14.92,6.91-21.83c1.11-6.91,1.66-9.95,4.14-6.91,2.49,3.04,.83,12.44,0,17.41s0,9.67-.83,16.3c-.83,6.63-2.76,9.4-3.87,9.95" style="fill: rgb(255, 255, 255); stroke: rgb(38, 50, 56); stroke-linecap: round; stroke-linejoin: round; transform-origin: 211.613px 269.101px;" id="elooo1azlhk9e" class="animable"></path></g><g id="el4rycgd3mxhk" class="animable" style="transform-origin: 324.78px 327.967px;"><path d="M330.3,295.39s-3.59-13.54-4.42-15.75c-.83-2.21-15.44-28.46-16-32.61-.55-4.14-5.53-11.33-6.36-11.05-.83,.28-5.28,20.17-5.28,20.17,0,0,2.21,7.74,4.7,13.82s2.76,7.46,2.76,7.46l-9.4-10.5s-2.49,3.04-.83,7.18,1.66,1.93,5.25,6.91,5.25,8.57,7.46,9.95c2.21,1.38,8.57,6.63,8.57,6.63,0,0,3.32,12.16,3.32,17.96s-.83,71.57-1.38,80.69c-.55,9.12,7.46,21.83,12.43,23.21,4.97,1.38,16.58,.28,21.28-8.01,4.7-8.29,.83-27.36-.55-32.33s-21.55-83.73-21.55-83.73Z" style="fill: rgb(255, 255, 255); stroke: rgb(38, 50, 56); stroke-linecap: round; stroke-linejoin: round; transform-origin: 324.78px 327.967px;" id="el73l5y3bddng" class="animable"></path><path d="M302.28,241.15s5.94,13.94,7.23,21.95" style="fill: none; stroke: rgb(38, 50, 56); stroke-linecap: round; stroke-linejoin: round; transform-origin: 305.895px 252.125px;" id="elu2ayznpenm" class="animable"></path><path d="M301.12,246.06s.77,13.43,3.1,19.37" style="fill: none; stroke: rgb(38, 50, 56); stroke-linecap: round; stroke-linejoin: round; transform-origin: 302.67px 255.745px;" id="el7q4witx16tq" class="animable"></path><path d="M322.32,277.42s-6.08-12.16-8.57-14.92-9.12-13.54-11.33-15.47c-2.21-1.93-2.49,4.42-.28,8.57,2.21,4.15,6.36,13.54,6.91,14.37,.55,.83,2.49,9.4,3.04,14.92,.55,5.53,2.49,9.12,5.8,10.5s4.7,2.21,4.7,2.21" style="fill: rgb(255, 255, 255); stroke: rgb(38, 50, 56); stroke-linecap: round; stroke-linejoin: round; transform-origin: 311.603px 272.137px;" id="elmudbj68w2uj" class="animable"></path></g><g id="ellr3cvpgbo3l" class="animable" style="transform-origin: 262.397px 237.668px;"><path d="M286.18,209.11s9.72-9.34,5.59-19.68c-4.13-10.33-25.49-18.26-37.2-15.5-11.71,2.76-15.84,5.51-15.84,5.51l10.33-1.38s-13.09,2.76-17.91,11.37-3.44,12.74-3.44,12.74l5.51-4.82s-1.38,6.54,1.72,11.02c3.1,4.48,14.47,1.72,18.94-1.72,4.48-3.44,9.3-6.54,17.22-2.41,7.92,4.13,12.93,6.63,15.08,4.86Z" style="fill: rgb(38, 50, 56); stroke: rgb(38, 50, 56); stroke-linecap: round; stroke-linejoin: round; transform-origin: 260.16px 192.039px;" id="eln81u7b4mmvd" class="animable"></path><path d="M231.23,263.25s-5.41-4.6-5.68-9.2c-.27-4.6,0-5.95,0-5.95,0,0-5.41-4.87-7.31-10.56-1.89-5.68,2.17-17.32,11.64-24.9,9.47-7.58,30.04-19.22,42.49-15.43,12.45,3.79,13.8,11.91,13.8,11.91,0,0,7.58-3.25,14.62,7.31,7.04,10.56,7.04,15.43,5.14,19.49s-4.33,7.31-4.33,7.31c0,0,1.62,1.08,0,6.77s-2.98,8.93-2.98,8.93l-7.85-19.22-15.43-15.97-41.14,24.36-2.98,15.16Z" style="fill: rgb(38, 50, 56); stroke: rgb(38, 50, 56); stroke-linecap: round; stroke-linejoin: round; transform-origin: 262.397px 229.865px;" id="elx480gyr8g2b" class="animable"></path><g id="ells383b0kj4i" class="animable" style="transform-origin: 264.39px 260.68px;"><path d="M276.97,219.4s-30.31,16.24-38.98,21.38l-8.66,5.14s2.17,31.4,4.87,34.65c2.71,3.25,20.84,16.78,24.9,19.22,4.06,2.44,11.37,2.98,14.35,.81,2.98-2.17,23.01-18.95,24.9-23.55,1.89-4.6-2.71-39.79-2.71-39.79,0,0-13.8-10.56-18.68-17.86Z" style="fill: rgb(255, 255, 255); stroke: rgb(38, 50, 56); stroke-linecap: round; stroke-linejoin: round; transform-origin: 264.068px 260.68px;" id="el94ol30q0cue" class="animable"></path><path d="M261,270.01s3.52,4.87,7.04,2.98c3.52-1.89,3.79-3.52,3.79-3.52" style="fill: none; stroke: rgb(38, 50, 56); stroke-linecap: round; stroke-linejoin: round; transform-origin: 266.415px 271.448px;" id="elmvyzimleo7" class="animable"></path><path d="M267.77,281.65s.81-1.89,4.33-4.06" style="fill: none; stroke: rgb(38, 50, 56); stroke-linecap: round; stroke-linejoin: round; transform-origin: 269.935px 279.62px;" id="elkkay7lpqt2n" class="animable"></path><path d="M239.89,252.15s6.5,6.23,15.97,0" style="fill: none; stroke: rgb(38, 50, 56); stroke-linecap: round; stroke-linejoin: round; stroke-width: 2px; transform-origin: 247.875px 253.534px;" id="elm9eyl6k61j" class="animable"></path><path d="M272.64,252.15s6.5,6.23,15.97,0" style="fill: none; stroke: rgb(38, 50, 56); stroke-linecap: round; stroke-linejoin: round; stroke-width: 2px; transform-origin: 280.625px 253.534px;" id="elqdqmekqyjgs" class="animable"></path><path d="M239.35,245.65s12.18-7.58,16.24-7.31c4.06,.27,1.89,3.25,1.89,3.25,0,0-10.56,3.25-12.72,4.33-2.17,1.08-6.77,3.25-5.41-.27Z" style="fill: rgb(38, 50, 56); transform-origin: 248.581px 242.955px;" id="el30n5g0b8uc7" class="animable"></path><path d="M290.57,245.65s-12.18-7.58-16.24-7.31c-4.06,.27-1.89,3.25-1.89,3.25,0,0,10.56,3.25,12.72,4.33,2.17,1.08,6.77,3.25,5.41-.27Z" style="fill: rgb(38, 50, 56); transform-origin: 281.339px 242.955px;" id="elmds22i1fvk" class="animable"></path><g id="el8p6j4nwkefj" class="animable" style="transform-origin: 265.2px 254.532px;"><path d="M230.96,248.09l.81,10.83s7.85,4.6,17.32,3.52c9.47-1.08,12.45-2.98,12.45-2.98l.81-12.99-31.4,1.62Z" style="fill: none; stroke: rgb(38, 50, 56); stroke-linecap: round; stroke-linejoin: round; stroke-width: 2px; transform-origin: 246.65px 254.537px;" id="eleqj2ncgooo7" class="animable"></path><path d="M299.44,248.09l-.81,10.83s-7.85,4.6-17.32,3.52c-9.47-1.08-12.45-2.98-12.45-2.98l-.81-12.99,31.4,1.62Z" style="fill: none; stroke: rgb(38, 50, 56); stroke-linecap: round; stroke-linejoin: round; stroke-width: 2px; transform-origin: 283.75px 254.537px;" id="elim8o2nfq7ge" class="animable"></path><line x1="262.36" y1="246.46" x2="268.04" y2="246.46" style="fill: none; stroke: rgb(38, 50, 56); stroke-linecap: round; stroke-linejoin: round; stroke-width: 2px; transform-origin: 265.2px 246.46px;" id="elebc0zhm7c1s" class="animable"></line><path d="M262.63,250.52s2.44-2.17,5.41,0" style="fill: none; stroke: rgb(38, 50, 56); stroke-linecap: round; stroke-linejoin: round; stroke-width: 2px; transform-origin: 265.335px 250.038px;" id="elkgkkjzx2zkr" class="animable"></path></g></g></g><path d="M198.27,298.53c-.47,1.83-1.12,4.39-1.92,7.48l13.93,1.65c.54-2.81,1.19-5.59,1.67-7.51l-13.69-1.62Z" style="fill: rgb(38, 50, 56); stroke: rgb(38, 50, 56); stroke-linecap: round; stroke-linejoin: round; transform-origin: 204.15px 303.095px;" id="eliiaffe81o4" class="animable"></path></g></g><g id="freepik--Lamp--inject-72" class="animable" style="transform-origin: 86.765px 329.606px;"><g id="elfmx5jafasp" class="animable" style="transform-origin: 86.765px 329.606px;"><path d="M76.9,425.39c.46,0,.93-.09,1.38-.28,1.81-.76,2.65-2.84,1.89-4.65l-44.2-104.54,60.32-68.38c1.3-1.47,1.16-3.71-.31-5.01-1.47-1.3-3.71-1.16-5.01,.31l-61.8,70.06c-.9,1.02-1.14,2.47-.61,3.72l45.07,106.59c.57,1.36,1.89,2.17,3.27,2.17Z" style="fill: rgb(255, 255, 255); stroke: rgb(38, 50, 56); stroke-linecap: round; stroke-linejoin: round; transform-origin: 62.7312px 333.515px;" id="el3pbh9ojn3zd" class="animable"></path><g id="elj8abqesxkl" class="animable" style="transform-origin: 113.234px 264.791px;"><path d="M106.81,299.33c-.23-.22-.45-.43-.68-.65-15.56-15.56-19-37.35-7.68-48.67,11.32-11.32,33.11-7.88,48.67,7.68,.22,.22,.44,.45,.65,.68l-40.96,40.96Z" style="fill: rgb(255, 255, 255); stroke: rgb(38, 50, 56); stroke-linecap: round; stroke-linejoin: round; transform-origin: 119.776px 271.336px;" id="el8zhusqt1u6l" class="animable"></path><g id="elg1ty6r5v44i"><path d="M82.9,234.8h21.47v17.11c0,2.03-1.65,3.67-3.67,3.67h-14.12c-2.03,0-3.67-1.65-3.67-3.67v-17.11h0Z" style="fill: rgb(255, 255, 255); stroke: rgb(38, 50, 56); stroke-linecap: round; stroke-linejoin: round; transform-origin: 93.635px 245.19px; transform: rotate(135deg);" class="animable" id="eld3p8ppqa64t"></path></g></g><path d="M27.81,315.47c0-3.75,3.04-6.8,6.8-6.8s6.8,3.04,6.8,6.8-3.04,6.8-6.8,6.8-6.8-3.04-6.8-6.8Z" style="fill: rgb(255, 255, 255); stroke: rgb(38, 50, 56); stroke-linecap: round; stroke-linejoin: round; transform-origin: 34.61px 315.47px;" id="el7o1qej7sst8" class="animable"></path><path d="M34.71,420.01H111.06c4.95,0,8.95,4.01,8.95,8.95H25.76c0-4.95,4.01-8.95,8.95-8.95Z" style="fill: rgb(255, 255, 255); stroke: rgb(38, 50, 56); stroke-linecap: round; stroke-linejoin: round; transform-origin: 72.885px 424.485px;" id="el9fxxpjt7nh" class="animable"></path></g></g><g id="freepik--Books_2--inject-72" class="animable" style="transform-origin: 416.13px 376.775px;"><g id="elnq1uyppxg7" class="animable" style="transform-origin: 416.13px 376.775px;"><g id="elyzv58f4pcq" class="animable" style="transform-origin: 419.27px 408.91px;"><g id="elfh82ui8mu49" class="animable" style="transform-origin: 421.165px 422.39px;"><path d="M468.06,417.44s-3.77,4.35,0,9.57h-68.57l-2.03-5.22,2.61-4.64,67.99,.29Z" style="fill: rgb(255, 255, 255); stroke: rgb(38, 50, 56); stroke-linecap: round; stroke-linejoin: round; transform-origin: 432.76px 422.08px;" id="eluqie2t3ewv8" class="animable"></path><path d="M399.49,426.77v-8.75h64.39v-2.19h-85.66c-3.62,0-6.56,2.94-6.56,6.56s2.94,6.56,6.56,6.56h85.66v-2.19h-64.39Z" style="fill: rgb(38, 50, 56); stroke: rgb(38, 50, 56); stroke-linecap: round; stroke-linejoin: round; transform-origin: 417.77px 422.39px;" id="el1yyggro6xzd" class="animable"></path><path d="M399.49,422.4h0c0-2.42,1.96-4.38,4.38-4.38h66.8v-2.19h-68.04c-3.48,0-6.29,2.82-6.29,6.29h0c0,3.77,3.06,6.83,6.83,6.83h67.5v-2.19h-66.8c-2.42,0-4.38-1.96-4.38-4.38Z" style="fill: rgb(201, 201, 201); stroke: rgb(38, 50, 56); stroke-linecap: round; stroke-linejoin: round; transform-origin: 433.505px 422.39px;" id="ell80znhuagso" class="animable"></path></g><g id="eljajsuvaq7ps" class="animable" style="transform-origin: 422.015px 395.435px;"><path d="M468.91,390.48s-3.77,4.35,0,9.57h-68.57l-2.03-5.22,2.61-4.64,67.99,.29Z" style="fill: rgb(255, 255, 255); stroke: rgb(38, 50, 56); stroke-linecap: round; stroke-linejoin: round; transform-origin: 433.61px 395.12px;" id="elya0yzvswtkm" class="animable"></path><path d="M400.34,399.82v-8.75h64.39v-2.19h-85.66c-3.62,0-6.56,2.94-6.56,6.56s2.94,6.56,6.56,6.56h85.66v-2.19h-64.39Z" style="fill: #FB7A5A; stroke: rgb(38, 50, 56); stroke-linecap: round; stroke-linejoin: round; transform-origin: 418.62px 395.44px;" id="el2emjpi6jhfv" class="animable"></path><path d="M400.34,395.44h0c0-2.42,1.96-4.38,4.38-4.38h66.8v-2.19h-68.04c-3.48,0-6.29,2.82-6.29,6.29h0c0,3.77,3.06,6.83,6.83,6.83h67.5v-2.19h-66.8c-2.42,0-4.38-1.96-4.38-4.38Z" style="fill: #FB7A5A; stroke: rgb(38, 50, 56); stroke-linecap: round; stroke-linejoin: round; transform-origin: 434.355px 395.43px;" id="el19ozrytmscd" class="animable"></path></g><g id="el16np61dbrmh" class="animable" style="transform-origin: 416.525px 409.335px;"><path d="M463.42,404.39s-3.77,4.35,0,9.57h-68.57l-2.03-5.22,2.61-4.64,67.99,.29Z" style="fill: rgb(255, 255, 255); stroke: rgb(38, 50, 56); stroke-linecap: round; stroke-linejoin: round; transform-origin: 428.12px 409.03px;" id="elql93zoojfe" class="animable"></path><path d="M394.85,413.72v-8.75h64.39v-2.19h-85.66c-3.62,0-6.56,2.94-6.56,6.56s2.94,6.56,6.56,6.56h85.66v-2.19h-64.39Z" style="fill: rgb(38, 50, 56); stroke: rgb(38, 50, 56); stroke-linecap: round; stroke-linejoin: round; transform-origin: 413.13px 409.34px;" id="elyknd6tfas" class="animable"></path><path d="M394.85,409.34h0c0-2.42,1.96-4.38,4.38-4.38h66.8v-2.19h-68.04c-3.48,0-6.29,2.82-6.29,6.29h0c0,3.77,3.06,6.83,6.83,6.83h67.5v-2.19h-66.8c-2.42,0-4.38-1.96-4.38-4.38Z" style="fill: #FB7A5A; stroke: rgb(38, 50, 56); stroke-linecap: round; stroke-linejoin: round; transform-origin: 428.865px 409.33px;" id="elrfutoq4vlm" class="animable"></path></g></g><g id="elu988xlvq8j" class="animable" style="transform-origin: 416.155px 382.85px;"><path d="M369.25,377.9s3.77,4.35,0,9.57h68.57l2.03-5.22-2.61-4.64-67.99,.29Z" style="fill: rgb(255, 255, 255); stroke: rgb(38, 50, 56); stroke-linecap: round; stroke-linejoin: round; transform-origin: 404.55px 382.54px;" id="elehu29rcas0j" class="animable"></path><path d="M437.83,387.23v-8.75h-64.39v-2.19h85.66c3.62,0,6.56,2.94,6.56,6.56s-2.94,6.56-6.56,6.56h-85.66v-2.19h64.39Z" style="fill: rgb(201, 201, 201); stroke: rgb(38, 50, 56); stroke-linecap: round; stroke-linejoin: round; transform-origin: 419.55px 382.85px;" id="elax6hx5vv7xh" class="animable"></path><path d="M437.83,382.86h0c0-2.42-1.96-4.38-4.38-4.38h-66.8v-2.19h68.04c3.48,0,6.29,2.82,6.29,6.29h0c0,3.77-3.06,6.83-6.83,6.83h-67.5v-2.19h66.8c2.42,0,4.38-1.96,4.38-4.38Z" style="fill: rgb(201, 201, 201); stroke: rgb(38, 50, 56); stroke-linecap: round; stroke-linejoin: round; transform-origin: 403.815px 382.85px;" id="elqb9md055y7j" class="animable"></path></g><g id="el9m3k8q7fnj" class="animable" style="transform-origin: 420.375px 370.195px;"><path d="M373.47,365.24s3.77,4.35,0,9.57h68.57l2.03-5.22-2.61-4.64-67.99,.29Z" style="fill: rgb(255, 255, 255); stroke: rgb(38, 50, 56); stroke-linecap: round; stroke-linejoin: round; transform-origin: 408.77px 369.88px;" id="eluo209bf99n" class="animable"></path><path d="M442.05,374.58v-8.75h-64.39v-2.19h85.66c3.62,0,6.56,2.94,6.56,6.56s-2.94,6.56-6.56,6.56h-85.66v-2.19h64.39Z" style="fill: #FB7A5A; stroke: rgb(38, 50, 56); stroke-linecap: round; stroke-linejoin: round; transform-origin: 423.77px 370.2px;" id="el1z30f1c8qks" class="animable"></path><path d="M442.05,370.2h0c0-2.42-1.96-4.38-4.38-4.38h-66.8v-2.19h68.04c3.48,0,6.29,2.82,6.29,6.29h0c0,3.77-3.06,6.83-6.83,6.83h-67.5v-2.19h66.8c2.42,0,4.38-1.96,4.38-4.38Z" style="fill: #FB7A5A; stroke: rgb(38, 50, 56); stroke-linecap: round; stroke-linejoin: round; transform-origin: 408.035px 370.19px;" id="el4tq74v6w83d" class="animable"></path></g><g id="el0rjevxnyx7g" class="animable" style="transform-origin: 410.245px 357.115px;"><path d="M363.35,352.16s3.77,4.35,0,9.57h68.57l2.03-5.22-2.61-4.64-67.99,.29Z" style="fill: rgb(255, 255, 255); stroke: rgb(38, 50, 56); stroke-linecap: round; stroke-linejoin: round; transform-origin: 398.65px 356.8px;" id="elekgn2l7par7" class="animable"></path><path d="M431.92,361.5v-8.75h-64.39v-2.19h85.66c3.62,0,6.56,2.94,6.56,6.56s-2.94,6.56-6.56,6.56h-85.66v-2.19h64.39Z" style="fill: rgb(38, 50, 56); stroke: rgb(38, 50, 56); stroke-linecap: round; stroke-linejoin: round; transform-origin: 413.64px 357.12px;" id="el4vmk62q1gde" class="animable"></path><path d="M431.92,357.12h0c0-2.42-1.96-4.38-4.38-4.38h-66.8v-2.19h68.04c3.48,0,6.29,2.82,6.29,6.29h0c0,3.77-3.06,6.83-6.83,6.83h-67.5v-2.19h66.8c2.42,0,4.38-1.96,4.38-4.38Z" style="fill: rgb(201, 201, 201); stroke: rgb(38, 50, 56); stroke-linecap: round; stroke-linejoin: round; transform-origin: 397.905px 357.11px;" id="elco37pb5u34g" class="animable"></path></g><g id="el0l6sgw8n709p" class="animable" style="transform-origin: 421.975px 344.245px;"><path d="M375.08,339.3s3.77,4.35,0,9.57h68.57l2.03-5.22-2.61-4.64-67.99,.29Z" style="fill: rgb(255, 255, 255); stroke: rgb(38, 50, 56); stroke-linecap: round; stroke-linejoin: round; transform-origin: 410.38px 343.94px;" id="elreww4eewnwa" class="animable"></path><path d="M443.65,348.63v-8.75h-64.39v-2.19h85.66c3.62,0,6.56,2.94,6.56,6.56s-2.94,6.56-6.56,6.56h-85.66v-2.19h64.39Z" style="fill: #FB7A5A; stroke: rgb(38, 50, 56); stroke-linecap: round; stroke-linejoin: round; transform-origin: 425.37px 344.25px;" id="eldbazqeecpg4" class="animable"></path><path d="M443.65,344.25h0c0-2.42-1.96-4.38-4.38-4.38h-66.8v-2.19h68.04c3.48,0,6.29,2.82,6.29,6.29h0c0,3.77-3.06,6.83-6.83,6.83h-67.5v-2.19h66.8c2.42,0,4.38-1.96,4.38-4.38Z" style="fill: #FB7A5A; stroke: rgb(38, 50, 56); stroke-linecap: round; stroke-linejoin: round; transform-origin: 409.635px 344.24px;" id="elhbng6twl3ai" class="animable"></path></g><g id="el0rco7g8rcvy9" class="animable" style="transform-origin: 411.845px 331.165px;"><path d="M364.95,326.22s3.77,4.35,0,9.57h68.57l2.03-5.22-2.61-4.64-67.99,.29Z" style="fill: rgb(255, 255, 255); stroke: rgb(38, 50, 56); stroke-linecap: round; stroke-linejoin: round; transform-origin: 400.25px 330.86px;" id="elgfc5kzyi2bw" class="animable"></path><path d="M433.52,335.55v-8.75h-64.39v-2.19h85.66c3.62,0,6.56,2.94,6.56,6.56s-2.94,6.56-6.56,6.56h-85.66v-2.19h64.39Z" style="fill: rgb(201, 201, 201); stroke: rgb(38, 50, 56); stroke-linecap: round; stroke-linejoin: round; transform-origin: 415.24px 331.17px;" id="elpjtkokfao9d" class="animable"></path><path d="M433.52,331.17h0c0-2.42-1.96-4.38-4.38-4.38h-66.8v-2.19h68.04c3.48,0,6.29,2.82,6.29,6.29h0c0,3.77-3.06,6.83-6.83,6.83h-67.5v-2.19h66.8c2.42,0,4.38-1.96,4.38-4.38Z" style="fill: rgb(201, 201, 201); stroke: rgb(38, 50, 56); stroke-linecap: round; stroke-linejoin: round; transform-origin: 399.505px 331.16px;" id="elhc5maimu53l" class="animable"></path></g></g></g><g id="freepik--Book_1--inject-72" class="animable" style="transform-origin: 260.15px 411.459px;"><g id="ele7j9nr89cuc" class="animable" style="transform-origin: 260.15px 411.459px;"><path d="M332.35,423.8c-18.6-10.77-72.32-15.69-72.32-15.69,0,0-53.72,4.92-72.32,15.69,0,0-2.59,1.21-1.7,1.88,.89,.67,.44,.67,3.11-.22,2.67-.89,35.12-10,41.57-10.23s17.34,7.78,19.12,9.34c1.78,1.56-.22,3.11,1.78,4,2,.89,8.45,0,8.45,0,0,0,6.45,.89,8.45,0,2-.89,0-2.45,1.78-4,1.78-1.56,12.67-9.56,19.12-9.34,6.45,.22,38.9,9.34,41.57,10.23,2.67,.89,2.22,.89,3.11,.22,.89-.67-1.7-1.88-1.7-1.88Z" style="fill: rgb(38, 50, 56); stroke: rgb(38, 50, 56); stroke-linecap: round; stroke-linejoin: round; transform-origin: 260.04px 418.538px;" id="elpmr0xx3fs5s" class="animable"></path><polygon points="252.29 424.35 268.02 424.35 260.26 413.67 252.29 424.35" style="fill: rgb(110, 110, 110); stroke: rgb(38, 50, 56); stroke-linecap: round; stroke-linejoin: round; transform-origin: 260.155px 419.01px;" id="elw8400cs9hb" class="animable"></polygon><g id="ell237vjhmi3b" class="animable" style="transform-origin: 260.15px 409.151px;"><g id="elwz6m9dw3apb" class="animable" style="transform-origin: 221.94px 409.151px;"><path d="M260.01,403.38s-8.55-10.21-22.07-9.38c-13.52,.83-34.21,9.66-41.11,12.97-6.9,3.31-12.97,4.41-12.97,4.41l3.86,12.42s26.76-8.55,40.01-10.21c13.24-1.66,24.56,10.76,24.56,10.76l7.73-11.59v-9.38Z" style="fill: rgb(255, 255, 255); stroke: rgb(38, 50, 56); stroke-linecap: round; stroke-linejoin: round; transform-origin: 221.94px 409.151px;" id="elzy1mud20km" class="animable"></path><path d="M254.5,421.04s-7.17-9.93-15.18-12.14c-8-2.21-12.14-.83-12.14-.83" style="fill: none; stroke: rgb(38, 50, 56); stroke-linecap: round; stroke-linejoin: round; transform-origin: 240.84px 414.342px;" id="el09s9bhuqim6k" class="animable"></path><path d="M236.01,404.49s6.9,.83,12.97,4.69" style="fill: none; stroke: rgb(38, 50, 56); stroke-linecap: round; stroke-linejoin: round; transform-origin: 242.495px 406.835px;" id="elfligai7wud6" class="animable"></path><line x1="252.84" y1="411.38" x2="257.53" y2="416.35" style="fill: none; stroke: rgb(38, 50, 56); stroke-linecap: round; stroke-linejoin: round; transform-origin: 255.185px 413.865px;" id="elxweyu8hxoqq" class="animable"></line><path d="M244.84,401.73s10.21,2.76,15.18,11.04" style="fill: none; stroke: rgb(38, 50, 56); stroke-linecap: round; stroke-linejoin: round; transform-origin: 252.43px 407.25px;" id="elgmnc1kki1x8" class="animable"></path><path d="M238.22,397.59s6.9-1.1,11.86,2.76" style="fill: none; stroke: rgb(38, 50, 56); stroke-linecap: round; stroke-linejoin: round; transform-origin: 244.15px 398.898px;" id="elmjlg5vdvgg" class="animable"></path><line x1="186.34" y1="416.35" x2="199.31" y2="411.94" style="fill: none; stroke: rgb(38, 50, 56); stroke-linecap: round; stroke-linejoin: round; transform-origin: 192.825px 414.145px;" id="eliv4wdi891xh" class="animable"></line><line x1="193.52" y1="416.9" x2="207.59" y2="412.49" style="fill: none; stroke: rgb(38, 50, 56); stroke-linecap: round; stroke-linejoin: round; transform-origin: 200.555px 414.695px;" id="el0hxa13991dxc" class="animable"></line></g><g id="elitrvx7rqts" class="animable" style="transform-origin: 298.36px 409.151px;"><path d="M260.29,403.38s8.55-10.21,22.07-9.38c13.52,.83,34.21,9.66,41.11,12.97,6.9,3.31,12.97,4.41,12.97,4.41l-3.86,12.42s-26.76-8.55-40.01-10.21c-13.24-1.66-24.56,10.76-24.56,10.76l-7.73-11.59v-9.38Z" style="fill: rgb(255, 255, 255); stroke: rgb(38, 50, 56); stroke-linecap: round; stroke-linejoin: round; transform-origin: 298.36px 409.151px;" id="elbrbijndzerh" class="animable"></path><path d="M265.81,421.04s7.17-9.93,15.18-12.14c8-2.21,12.14-.83,12.14-.83" style="fill: none; stroke: rgb(38, 50, 56); stroke-linecap: round; stroke-linejoin: round; transform-origin: 279.47px 414.342px;" id="elmjddwbb7u1i" class="animable"></path><path d="M284.29,404.49s-6.9,.83-12.97,4.69" style="fill: none; stroke: rgb(38, 50, 56); stroke-linecap: round; stroke-linejoin: round; transform-origin: 277.805px 406.835px;" id="elc2ebwgo3x3t" class="animable"></path><line x1="267.46" y1="411.38" x2="262.77" y2="416.35" style="fill: none; stroke: rgb(38, 50, 56); stroke-linecap: round; stroke-linejoin: round; transform-origin: 265.115px 413.865px;" id="el34oe2y5l43h" class="animable"></line><path d="M275.47,401.73s-10.21,2.76-15.18,11.04" style="fill: none; stroke: rgb(38, 50, 56); stroke-linecap: round; stroke-linejoin: round; transform-origin: 267.88px 407.25px;" id="elpcgrdbye4jq" class="animable"></path><path d="M282.09,397.59s-6.9-1.1-11.86,2.76" style="fill: none; stroke: rgb(38, 50, 56); stroke-linecap: round; stroke-linejoin: round; transform-origin: 276.16px 398.898px;" id="el84d1vjprrdd" class="animable"></path><line x1="333.96" y1="416.35" x2="320.99" y2="411.94" style="fill: none; stroke: rgb(38, 50, 56); stroke-linecap: round; stroke-linejoin: round; transform-origin: 327.475px 414.145px;" id="el9j5jyjh1d38" class="animable"></line><line x1="326.79" y1="416.9" x2="312.71" y2="412.49" style="fill: none; stroke: rgb(38, 50, 56); stroke-linecap: round; stroke-linejoin: round; transform-origin: 319.75px 414.695px;" id="elybj2bi7pft" class="animable"></line></g></g></g></g><g id="freepik--Device--inject-72" class="animable" style="transform-origin: 132.905px 385.585px;"><g id="eldm6g2remxh" class="animable" style="transform-origin: 132.905px 385.585px;"><polygon points="170.44 428.96 49.25 428.96 33.99 342.21 155.18 342.21 170.44 428.96" style="fill: rgb(201, 201, 201); stroke: rgb(38, 50, 56); stroke-linecap: round; stroke-linejoin: round; transform-origin: 102.215px 385.585px;" id="elgckvbhnduul" class="animable"></polygon><polygon points="170.44 428.96 49.25 428.96 33.99 342.21 155.18 342.21 170.44 428.96" style="fill: rgb(201, 201, 201); stroke: rgb(38, 50, 56); stroke-linecap: round; stroke-linejoin: round; transform-origin: 102.215px 385.585px;" id="elew5x83imfkp" class="animable"></polygon><polygon points="166.58 428.96 45.39 428.96 30.14 342.21 151.33 342.21 166.58 428.96" style="fill: rgb(201, 201, 201); stroke: rgb(38, 50, 56); stroke-linecap: round; stroke-linejoin: round; transform-origin: 98.36px 385.585px;" id="elw338tml8ryf" class="animable"></polygon><polygon points="48.53 424.86 49.25 428.96 170.44 428.96 169.72 424.86 48.53 424.86" style="fill: rgb(38, 50, 56); stroke: rgb(38, 50, 56); stroke-linecap: round; stroke-linejoin: round; transform-origin: 109.485px 426.91px;" id="elk0gvxl1qc9i" class="animable"></polygon><rect x="163.09" y="425.35" width="72.58" height="3.61" style="fill: rgb(201, 201, 201); stroke: rgb(38, 50, 56); stroke-linecap: round; stroke-linejoin: round; transform-origin: 199.38px 427.155px;" id="elfal5tcdeqgw" class="animable"></rect></g></g><defs>     <filter id="active" height="200%">         <feMorphology in="SourceAlpha" result="DILATED" operator="dilate" radius="2"></feMorphology>                <feFlood flood-color="#32DFEC" flood-opacity="1" result="PINK"></feFlood>        <feComposite in="PINK" in2="DILATED" operator="in" result="OUTLINE"></feComposite>        <feMerge>            <feMergeNode in="OUTLINE"></feMergeNode>            <feMergeNode in="SourceGraphic"></feMergeNode>        </feMerge>    </filter>    <filter id="hover" height="200%">        <feMorphology in="SourceAlpha" result="DILATED" operator="dilate" radius="2"></feMorphology>                <feFlood flood-color="#ff0000" flood-opacity="0.5" result="PINK"></feFlood>        <feComposite in="PINK" in2="DILATED" operator="in" result="OUTLINE"></feComposite>        <feMerge>            <feMergeNode in="OUTLINE"></feMergeNode>            <feMergeNode in="SourceGraphic"></feMergeNode>        </feMerge>            <feColorMatrix type="matrix" values="0   0   0   0   0                0   1   0   0   0                0   0   0   0   0                0   0   0   1   0 "></feColorMatrix>    </filter></defs></svg>