<?xml version="1.0" encoding="UTF-8"?>
<!DOCTYPE svg PUBLIC "-//W3C//DTD SVG 1.1//EN" "http://www.w3.org/Graphics/SVG/1.1/DTD/svg11.dtd">
<!-- Creator: CorelDRAW X7 -->
<svg xmlns="http://www.w3.org/2000/svg" xml:space="preserve" width="357.747mm" height="78.1784mm" version="1.1" style="shape-rendering:geometricPrecision; text-rendering:geometricPrecision; image-rendering:optimizeQuality; fill-rule:evenodd; clip-rule:evenodd"
viewBox="0 0 72586 15862"
 xmlns:xlink="http://www.w3.org/1999/xlink">
 <defs>
  <style type="text/css">
   <![CDATA[
    .fil0 {fill:white}
    .fil1 {fill:white;fill-rule:nonzero}
   ]]>
  </style>
 </defs>
 <g id="Layer_x0020_1">
  <metadata id="CorelCorpID_0Corel-Layer"/>
  <g id="_325486768">
   <path class="fil0" d="M7508 3384l-4000 4000c-78,78 -78,209 0,287l2735 2735c79,79 209,79 288,0l3999 -3999 1944 1943 -5235 5235c-439,439 -1158,439 -1597,0l-5313 -5312c-439,-439 -439,-1158 0,-1597l5235 -5235 1441 -1441 503 3384z"/>
   <path class="fil0" d="M9364 12478l3999 -3999c79,-79 79,-209 0,-288l-2735 -2735c-78,-78 -209,-78 -287,0l-4000 3999 -1943 -1943 5235 -5235c439,-439 1158,-439 1597,0l5312 5312c439,439 439,1158 0,1597l-5235 5236 -1440 1440 -503 -3384z"/>
   <path class="fil1" d="M20213 5173c-260,0 -500,-48 -722,-146 -222,-97 -417,-229 -583,-395 -167,-167 -299,-361 -396,-583 -97,-222 -146,-463 -146,-722 0,-259 49,-500 146,-722 97,-222 229,-416 396,-583 166,-166 361,-298 583,-395 222,-98 462,-146 722,-146l8425 0c185,0 343,65 472,194 130,130 195,287 195,472 0,185 -65,343 -195,472 -129,130 -287,194 -472,194l-8453 0c-139,0 -262,49 -368,146 -106,97 -160,220 -160,368 0,139 54,259 160,361 106,102 229,153 368,153l7676 0c259,0 502,48 729,145 226,98 423,229 590,396 166,167 298,363 395,590 97,227 146,470 146,729 0,259 -49,499 -146,722 -97,222 -229,416 -395,583 -167,166 -364,296 -590,388 -227,93 -470,139 -729,139l-8412 0c-185,0 -342,-65 -472,-194 -129,-130 -194,-287 -194,-472 0,-185 65,-343 194,-472 130,-130 287,-195 472,-195l8467 0c139,0 260,-48 361,-145 102,-98 153,-215 153,-354 0,-148 -51,-273 -153,-375 -101,-102 -222,-153 -361,-153l-7703 0z"/>
   <path id="1" class="fil1" d="M32442 6867c0,185 -65,342 -195,472 -129,129 -287,194 -472,194 -185,0 -342,-65 -472,-194 -129,-130 -194,-287 -194,-472l0 -4720c0,-185 65,-342 194,-472 130,-129 287,-194 472,-194 185,0 343,65 472,194 130,130 195,287 195,472l0 4720z"/>
   <path id="2" class="fil1" d="M35676 5173c-259,0 -500,-48 -722,-146 -222,-97 -416,-229 -583,-395 -166,-167 -298,-361 -396,-583 -97,-222 -145,-463 -145,-722 0,-259 48,-500 145,-722 98,-222 230,-416 396,-583 167,-166 361,-298 583,-395 222,-98 463,-146 722,-146l8426 0c185,0 342,65 472,194 129,130 194,287 194,472 0,185 -65,343 -194,472 -130,130 -287,194 -472,194l-8454 0c-139,0 -261,49 -368,146 -106,97 -159,220 -159,368 0,139 53,259 159,361 107,102 229,153 368,153l7676 0c259,0 502,48 729,145 227,98 423,229 590,396 167,167 298,363 396,590 97,227 145,470 145,729 0,259 -48,499 -145,722 -98,222 -229,416 -396,583 -167,166 -363,296 -590,388 -227,93 -470,139 -729,139l-8412 0c-185,0 -342,-65 -471,-194 -130,-130 -195,-287 -195,-472 0,-185 65,-343 195,-472 129,-130 286,-195 471,-195l8468 0c139,0 259,-48 361,-145 102,-98 152,-215 152,-354 0,-148 -50,-273 -152,-375 -102,-102 -222,-153 -361,-153l-7704 0z"/>
   <path id="3" class="fil1" d="M47891 3841l3207 0c481,0 953,-63 1415,-188 463,-125 914,-289 1354,-493 439,-203 861,-434 1263,-694 403,-259 789,-522 1159,-791 157,-129 315,-194 472,-194 185,0 342,65 472,194 130,130 194,287 194,472 0,130 -37,243 -111,340 -74,97 -162,183 -263,257 -241,185 -472,359 -694,521 -223,162 -445,312 -667,451 -222,139 -451,273 -687,402 -236,130 -488,259 -756,389 268,129 520,259 756,389 236,129 465,263 687,402 222,139 444,289 667,451 222,162 453,336 694,521 101,74 189,159 263,257 74,97 111,210 111,340 0,185 -64,342 -194,472 -130,129 -287,194 -472,194 -157,0 -315,-65 -472,-194 -379,-278 -770,-546 -1173,-805 -402,-260 -821,-491 -1256,-694 -435,-204 -884,-366 -1347,-486 -462,-121 -934,-181 -1415,-181l-3207 0 0 1694c0,185 -65,342 -194,472 -130,129 -282,194 -458,194 -185,0 -343,-65 -472,-194 -130,-130 -195,-287 -195,-472l0 -4720c0,-185 65,-342 195,-472 129,-129 282,-194 458,-194 185,0 342,65 472,194 129,130 194,287 194,472l0 1694z"/>
   <path id="4" class="fil1" d="M62924 6034c0,-241 83,-444 250,-611 167,-166 370,-250 611,-250 240,0 444,84 611,250 166,167 249,370 249,611 0,240 -83,444 -249,611 -167,166 -371,249 -611,249 -241,0 -444,-83 -611,-249 -167,-167 -250,-371 -250,-611zm-2929 1249c-138,167 -310,250 -513,250 -185,0 -343,-65 -472,-194 -130,-130 -195,-287 -195,-472 0,-167 47,-301 139,-403l3373 -4539c158,-213 366,-386 625,-520 259,-135 537,-202 833,-202 277,0 541,60 791,181 250,120 453,287 611,499l3373 4512c55,65 102,136 139,215 37,79 55,164 55,257 0,185 -65,342 -194,472 -130,129 -287,194 -472,194 -222,0 -398,-88 -528,-264l-3234 -4317c-65,-74 -146,-155 -243,-243 -97,-88 -196,-132 -298,-132 -102,0 -201,44 -299,132 -97,88 -173,169 -229,243l-3262 4331z"/>
   <path class="fil1" d="M20031 14494c1202,0 1785,-601 1785,-1304 0,-1544 -2446,-1008 -2446,-1785 0,-265 222,-481 799,-481 373,0 776,108 1166,330l301 -739c-391,-246 -932,-373 -1461,-373 -1196,0 -1773,595 -1773,1312 0,1562 2446,1021 2446,1809 0,257 -234,449 -811,449 -505,0 -1034,-180 -1388,-437l-331 732c373,288 1046,487 1713,487z"/>
   <path id="1" class="fil1" d="M27161 14494c1322,0 2302,-920 2302,-2176 0,-1256 -980,-2176 -2302,-2176 -1328,0 -2302,926 -2302,2176 0,1250 974,2176 2302,2176zm0 -830c-751,0 -1316,-547 -1316,-1346 0,-799 565,-1346 1316,-1346 751,0 1316,547 1316,1346 0,799 -565,1346 -1316,1346z"/>
   <polygon id="2" class="fil1" points="36016,10996 36016,10215 32837,10215 32837,14421 33810,14421 33810,12889 35758,12889 35758,12108 33810,12108 33810,10996 "/>
   <polygon id="3" class="fil1" points="40219,14421 41193,14421 41193,11008 42539,11008 42539,10215 38873,10215 38873,11008 40219,11008 "/>
   <polygon id="4" class="fil1" points="51051,10215 50072,13195 49110,10215 48209,10215 47217,13171 46268,10215 45258,10215 46640,14421 47680,14421 48635,11573 49561,14421 50607,14421 51983,10215 "/>
   <path id="5" class="fil1" d="M58169 14421l1022 0 -1881 -4206 -962 0 -1875 4206 998 0 373 -901 1953 0 372 901zm-2013 -1640l667 -1611 667 1611 -1334 0z"/>
   <path id="6" class="fil1" d="M65997 14421l-944 -1352c547,-234 866,-697 866,-1328 0,-944 -704,-1526 -1827,-1526l-1821 0 0 4206 973 0 0 -1171 848 0 48 0 811 1171 1046 0zm-1064 -2680c0,457 -301,733 -896,733l-793 0 0 -1466 793 0c595,0 896,270 896,733z"/>
   <polygon id="7" class="fil1" points="70296,13640 70296,12667 72249,12667 72249,11909 70296,11909 70296,10996 72508,10996 72508,10215 69328,10215 69328,14421 72586,14421 72586,13640 "/>
  </g>
 </g>
</svg>
